<svg width="150" height="50" viewBox="0 0 582 340" fill="none" xmlns="http://www.w3.org/2000/svg">
<g filter="url(#filter0_d_103_2)">
<path d="M188.672 211.821V233.153C188.672 260.976 174.483 285.785 152.849 300.625C139.59 309.667 123.773 315 106.559 315H7V25.6358V23.3171V23.0853V5H56.5469V5.23186C59.1057 5 61.6644 5 64.4558 5H87.0194C137.032 5 177.739 45.5759 177.739 95.4263C177.739 111.425 173.552 126.496 166.108 139.48C153.315 129.046 137.264 122.091 119.818 120.699C123.075 116.062 124.936 110.729 124.936 104.701V86.1518C124.936 70.8489 112.374 58.3283 97.0218 58.3283H56.5469V260.744H111.444C117.957 260.744 124.005 258.426 128.657 254.716C135.171 249.615 139.358 241.731 139.358 232.921V212.285C139.358 203.242 134.938 195.127 128.192 190.026C123.54 186.548 117.725 184.461 111.444 184.461H91.6717H71.6669L71.4342 130.206H106.792C107.257 130.206 107.49 130.206 107.955 130.206C114.933 130.206 121.679 131.365 127.96 132.988C139.59 136.234 150.291 141.799 159.363 149.45C177.274 164.521 188.672 187.012 188.672 211.821Z" fill="url(#paint0_linear_103_2)"/>
</g>
<g filter="url(#filter1_d_103_2)">
<path d="M228.559 236.637C228.559 227.392 227.452 221.207 225.238 218.082C223.09 214.892 218.467 213.525 211.371 213.98L210.98 212.223C221.723 209.033 231.586 207.438 240.57 207.438C241.938 210.823 242.621 214.534 242.621 218.57V291.422C242.621 296.565 243.826 300.374 246.234 302.848C248.643 305.322 252.908 307.112 259.027 308.219L258.246 310.562C250.759 309.521 244.965 309 240.863 309C236.827 309 232.27 309.521 227.191 310.562L226.605 309.586C227.908 307.698 228.559 304.247 228.559 299.234V236.637ZM218.598 171.207C224.783 167.626 231.781 164.632 239.594 162.223C239.594 167.626 240.473 172.965 242.23 178.238L240.961 179.996C234.776 180.387 228.331 182.112 221.625 185.172C219.997 180.68 218.988 176.025 218.598 171.207ZM300.629 291.422C300.629 296.565 301.833 300.374 304.242 302.848C306.651 305.322 310.915 307.112 317.035 308.219L316.254 310.562C308.767 309.521 302.973 309 298.871 309C294.835 309 290.277 309.521 285.199 310.562L284.613 309.586C285.915 307.698 286.566 304.247 286.566 299.234V182.242C286.566 172.997 285.46 166.812 283.246 163.688C281.098 160.497 276.475 159.13 269.379 159.586L268.988 157.828C279.73 154.638 289.594 153.043 298.578 153.043C299.945 156.428 300.629 160.139 300.629 164.176V291.422ZM346.527 236.637C346.527 227.392 345.421 221.207 343.207 218.082C341.059 214.892 336.436 213.525 329.34 213.98L328.949 212.223C339.691 209.033 349.555 207.438 358.539 207.438C359.906 210.823 360.59 214.534 360.59 218.57V291.422C360.59 296.565 361.794 300.374 364.203 302.848C366.612 305.322 370.876 307.112 376.996 308.219L376.215 310.562C368.728 309.521 362.934 309 358.832 309C354.796 309 350.238 309.521 345.16 310.562L344.574 309.586C345.876 307.698 346.527 304.247 346.527 299.234V236.637ZM336.566 171.207C342.751 167.626 349.75 164.632 357.562 162.223C357.562 167.626 358.441 172.965 360.199 178.238L358.93 179.996C352.745 180.387 346.299 182.112 339.594 185.172C337.966 180.68 336.957 176.025 336.566 171.207ZM533.93 286.832V242.008C533.93 236.344 533.311 231.754 532.074 228.238C530.902 224.723 529.34 221.988 527.387 220.035C525.499 218.082 523.35 216.78 520.941 216.129C518.598 215.413 516.254 215.055 513.91 215.055C509.353 215.055 504.633 215.966 499.75 217.789C494.932 219.612 489.822 222.477 484.418 226.383C485.46 229.898 485.98 233.902 485.98 238.395V297.965C485.98 299.592 486.339 300.927 487.055 301.969C487.836 303.01 488.812 303.889 489.984 304.605C491.221 305.322 492.621 305.94 494.184 306.461C495.746 306.917 497.341 307.372 498.969 307.828L498.188 310.172C494.346 309.391 489.464 309 483.539 309C479.828 309 475.499 309.521 470.551 310.562L469.965 309.586C471.332 307.763 472.016 304.312 472.016 299.234V242.008C472.016 236.409 471.365 231.852 470.062 228.336C468.76 224.82 467.068 222.086 464.984 220.133C462.901 218.115 460.557 216.747 457.953 216.031C455.349 215.315 452.777 214.957 450.238 214.957C447.309 214.957 444.574 215.283 442.035 215.934C439.496 216.52 436.99 217.398 434.516 218.57C432.107 219.742 429.6 221.24 426.996 223.062C424.392 224.82 421.592 226.871 418.598 229.215V295.621C418.598 297.704 418.76 299.397 419.086 300.699C419.411 301.936 420.095 302.978 421.137 303.824C422.178 304.671 423.643 305.419 425.531 306.07C427.419 306.721 429.893 307.438 432.953 308.219L432.172 310.562C428.396 310.042 425.173 309.651 422.504 309.391C419.9 309.13 417.784 309 416.156 309C412.445 309 408.116 309.521 403.168 310.562L402.582 309.586C403.884 307.698 404.535 304.247 404.535 299.234V236.637C404.535 232.275 404.307 228.629 403.852 225.699C403.461 222.77 402.712 220.426 401.605 218.668C400.564 216.91 399.099 215.673 397.211 214.957C395.323 214.241 392.914 213.883 389.984 213.883C389.594 213.883 389.171 213.883 388.715 213.883C388.259 213.883 387.803 213.915 387.348 213.98L386.957 212.223C397.569 209.033 407.432 207.438 416.547 207.438C417.914 210.888 418.598 214.599 418.598 218.57V222.574C422.113 219.905 425.303 217.626 428.168 215.738C431.098 213.785 433.93 212.19 436.664 210.953C439.464 209.716 442.296 208.805 445.16 208.219C448.025 207.633 451.215 207.34 454.73 207.34C457.27 207.34 459.841 207.568 462.445 208.023C465.115 208.414 467.654 209.163 470.062 210.27C472.536 211.311 474.815 212.711 476.898 214.469C478.982 216.227 480.74 218.473 482.172 221.207C485.362 218.863 488.422 216.812 491.352 215.055C494.281 213.297 497.178 211.832 500.043 210.66C502.908 209.488 505.805 208.642 508.734 208.121C511.664 207.535 514.757 207.242 518.012 207.242C521.592 207.242 525.141 207.73 528.656 208.707C532.237 209.618 535.46 211.246 538.324 213.59C541.189 215.934 543.5 219.124 545.258 223.16C547.081 227.132 547.992 232.21 547.992 238.395V297.965C547.992 299.592 548.35 300.927 549.066 301.969C549.848 303.01 550.824 303.889 551.996 304.605C553.233 305.322 554.633 305.94 556.195 306.461C557.758 306.917 559.353 307.372 560.98 307.828L560.199 310.172C556.358 309.391 551.475 309 545.551 309C541.84 309 537.51 309.521 532.562 310.562L531.977 309.586C533.279 307.698 533.93 304.247 533.93 299.234V286.832Z" fill="#5AA9FF"/>
</g>
<defs>
<filter id="filter0_d_103_2" x="0" y="0" width="211.672" height="340" filterUnits="userSpaceOnUse" color-interpolation-filters="sRGB">
<feFlood flood-opacity="0" result="BackgroundImageFix"/>
<feColorMatrix in="SourceAlpha" type="matrix" values="0 0 0 0 0 0 0 0 0 0 0 0 0 0 0 0 0 0 127 0" result="hardAlpha"/>
<feOffset dx="8" dy="10"/>
<feGaussianBlur stdDeviation="7.5"/>
<feComposite in2="hardAlpha" operator="out"/>
<feColorMatrix type="matrix" values="0 0 0 0 0 0 0 0 0 0 0 0 0 0 0 0 0 0 0.25 0"/>
<feBlend mode="normal" in2="BackgroundImageFix" result="effect1_dropShadow_103_2"/>
<feBlend mode="normal" in="SourceGraphic" in2="effect1_dropShadow_103_2" result="shape"/>
</filter>
<filter id="filter1_d_103_2" x="210.98" y="153.043" width="358" height="165.52" filterUnits="userSpaceOnUse" color-interpolation-filters="sRGB">
<feFlood flood-opacity="0" result="BackgroundImageFix"/>
<feColorMatrix in="SourceAlpha" type="matrix" values="0 0 0 0 0 0 0 0 0 0 0 0 0 0 0 0 0 0 127 0" result="hardAlpha"/>
<feOffset dx="4" dy="4"/>
<feGaussianBlur stdDeviation="2"/>
<feComposite in2="hardAlpha" operator="out"/>
<feColorMatrix type="matrix" values="0 0 0 0 0 0 0 0 0 0 0 0 0 0 0 0 0 0 0.25 0"/>
<feBlend mode="normal" in2="BackgroundImageFix" result="effect1_dropShadow_103_2"/>
<feBlend mode="normal" in="SourceGraphic" in2="effect1_dropShadow_103_2" result="shape"/>
</filter>
<linearGradient id="paint0_linear_103_2" x1="7" y1="159.965" x2="188.765" y2="159.965" gradientUnits="userSpaceOnUse">
<stop stop-color="#15EEFF"/>
<stop offset="0.3268" stop-color="#5AA9FF"/>
<stop offset="0.8073" stop-color="#6AB6FF"/>
</linearGradient>
</defs>
</svg>
