<svg width="213" height="340" viewBox="0 0 213 340" fill="none" xmlns="http://www.w3.org/2000/svg">
    <g filter="url(#filter0_d_102_3)">
    <path d="M190 211.821V233.153C190 260.976 175.707 285.785 153.916 300.625C140.56 309.667 124.626 315 107.287 315H7V25.6358V23.3171V23.0853V5H56.9091V5.23186C59.4866 5 62.064 5 64.8758 5H87.6044C137.982 5 178.987 45.5759 178.987 95.4263C178.987 111.425 174.77 126.496 167.271 139.48C154.384 129.046 138.216 122.091 120.643 120.699C123.923 116.062 125.798 110.729 125.798 104.701V86.1518C125.798 70.8489 113.145 58.3283 97.6799 58.3283H56.9091V260.744H112.207C118.768 260.744 124.86 258.426 129.547 254.716C136.108 249.615 140.325 241.731 140.325 232.921V212.285C140.325 203.242 135.873 195.127 129.078 190.026C124.392 186.548 118.534 184.461 112.207 184.461H92.2907H72.1396L71.9053 130.206H107.521C107.99 130.206 108.224 130.206 108.693 130.206C115.722 130.206 122.517 131.365 128.844 132.988C140.56 136.234 151.338 141.799 160.476 149.45C178.519 164.521 190 187.012 190 211.821Z" fill="url(#paint0_linear_102_3)"/>
    </g>
    <defs>
    <filter id="filter0_d_102_3" x="0" y="0" width="213" height="340" filterUnits="userSpaceOnUse" color-interpolation-filters="sRGB">
    <feFlood flood-opacity="0" result="BackgroundImageFix"/>
    <feColorMatrix in="SourceAlpha" type="matrix" values="0 0 0 0 0 0 0 0 0 0 0 0 0 0 0 0 0 0 127 0" result="hardAlpha"/>
    <feOffset dx="8" dy="10"/>
    <feGaussianBlur stdDeviation="7.5"/>
    <feComposite in2="hardAlpha" operator="out"/>
    <feColorMatrix type="matrix" values="0 0 0 0 0 0 0 0 0 0 0 0 0 0 0 0 0 0 0.25 0"/>
    <feBlend mode="normal" in2="BackgroundImageFix" result="effect1_dropShadow_102_3"/>
    <feBlend mode="normal" in="SourceGraphic" in2="effect1_dropShadow_102_3" result="shape"/>
    </filter>
    <linearGradient id="paint0_linear_102_3" x1="7" y1="159.965" x2="190.094" y2="159.965" gradientUnits="userSpaceOnUse">
    <stop stop-color="#15EEFF"/>
    <stop offset="0.3268" stop-color="#5AA9FF"/>
    <stop offset="0.8073" stop-color="#6AB6FF"/>
    </linearGradient>
    </defs>
</svg>
