<svg aria-hidden="true" style="position: absolute; width: 0; height: 0; overflow: hidden;" version="1.1"
	xmlns="http://www.w3.org/2000/svg" xmlns:xlink="http://www.w3.org/1999/xlink">

	<defs>
		<symbol width="20" height="20" viewBox="0 0 256 250" xmlns="http://www.w3.org/2000/svg" id="github">
			<path d="M128.001 0C57.317 0 0 57.307 0 128.001c0 56.554 36.676 104.535 87.535 121.46 6.397 1.185 8.746-2.777 8.746-6.158 0-3.052-.12-13.135-.174-23.83-35.61 7.742-43.124-15.103-43.124-15.103-5.823-14.795-14.213-18.73-14.213-18.73-11.613-7.944.876-7.78.876-7.78 12.853.902 19.621 13.19 19.621 13.19 11.417 19.568 29.945 13.911 37.249 10.64 1.149-8.272 4.466-13.92 8.127-17.116-28.431-3.236-58.318-14.212-58.318-63.258 0-13.975 5-25.394 13.188-34.358-1.329-3.224-5.71-16.242 1.24-33.874 0 0 10.749-3.44 35.21 13.121 10.21-2.836 21.16-4.258 32.038-4.307 10.878.049 21.837 1.47 32.066 4.307 24.431-16.56 35.165-13.12 35.165-13.12 6.967 17.63 2.584 30.65 1.255 33.873 8.207 8.964 13.173 20.383 13.173 34.358 0 49.163-29.944 59.988-58.447 63.157 4.591 3.972 8.682 11.762 8.682 23.704 0 17.126-.148 30.91-.148 35.126 0 3.407 2.304 7.398 8.792 6.14C219.37 232.5 256 184.537 256 128.002 256 57.307 198.691 0 128.001 0Zm-80.06 182.34c-.282.636-1.283.827-2.194.39-.929-.417-1.45-1.284-1.15-1.922.276-.655 1.279-.838 2.205-.399.93.418 1.46 1.293 1.139 1.931Zm6.296 5.618c-.61.566-1.804.303-2.614-.591-.837-.892-.994-2.086-.375-2.66.63-.566 1.787-.301 2.626.591.838.903 1 2.088.363 2.66Zm4.32 7.188c-.785.545-2.067.034-2.86-1.104-.784-1.138-.784-2.503.017-3.05.795-.547 2.058-.055 2.861 1.075.782 1.157.782 2.522-.019 3.08Zm7.304 8.325c-.701.774-2.196.566-3.29-.49-1.119-1.032-1.43-2.496-.726-3.27.71-.776 2.213-.558 3.315.49 1.11 1.03 1.45 2.505.701 3.27Zm9.442 2.81c-.31 1.003-1.75 1.459-3.199 1.033-1.448-.439-2.395-1.613-2.103-2.626.301-1.01 1.747-1.484 3.207-1.028 1.446.436 2.396 1.602 2.095 2.622Zm10.744 1.193c.036 1.055-1.193 1.93-2.715 1.95-1.53.034-2.769-.82-2.786-1.86 0-1.065 1.202-1.932 2.733-1.958 1.522-.03 2.768.818 2.768 1.868Zm10.555-.405c.182 1.03-.875 2.088-2.387 2.37-1.485.271-2.861-.365-3.05-1.386-.184-1.056.893-2.114 2.376-2.387 1.514-.263 2.868.356 3.061 1.403Z"/>
		</symbol>	
		<symbol width="20" height="20" viewBox="0 0 50 50" xmlns="http://www.w3.org/2000/svg" id="instagram">
			<path  stroke="none" fill-rule="evenodd" d="M24 0C10.745 0 0 10.745 0 24s10.745 24 24 24 24-10.745 24-24S37.255 0 24 0Zm-5.277 11.277c1.366-.062 1.802-.077 5.278-.077h-.004c3.478 0 3.912.015 5.278.077 1.362.063 2.293.279 3.109.595a6.256 6.256 0 0 1 2.267 1.476 6.281 6.281 0 0 1 1.477 2.268c.315.813.53 1.744.595 3.106.061 1.366.077 1.802.077 5.278 0 3.476-.016 3.912-.077 5.277-.064 1.362-.28 2.293-.595 3.107a6.283 6.283 0 0 1-1.477 2.267 6.263 6.263 0 0 1-2.266 1.477c-.815.317-1.746.532-3.108.595-1.366.062-1.8.077-5.277.077-3.476 0-3.912-.015-5.278-.077-1.362-.063-2.293-.278-3.107-.595a6.268 6.268 0 0 1-2.267-1.477 6.271 6.271 0 0 1-1.476-2.268c-.316-.814-.532-1.744-.595-3.106-.061-1.366-.077-1.8-.077-5.277 0-3.476.016-3.913.077-5.278.061-1.362.277-2.293.595-3.107a6.284 6.284 0 0 1 1.477-2.267 6.268 6.268 0 0 1 2.268-1.476c.813-.316 1.744-.532 3.106-.595Z" clip-rule="evenodd"/>
			<path stroke="none" fill-rule="evenodd" d="M22.853 13.507h1.148c3.418 0 3.823.012 5.173.073 1.248.057 1.925.266 2.376.441.598.232 1.023.51 1.471.957.448.449.725.875.958 1.473.175.45.384 1.127.44 2.375.062 1.35.075 1.755.075 5.171 0 3.416-.013 3.822-.074 5.171-.057 1.248-.266 1.925-.441 2.376a3.958 3.958 0 0 1-.958 1.47 3.959 3.959 0 0 1-1.47.958c-.451.176-1.13.384-2.377.44-1.35.062-1.755.075-5.173.075s-3.823-.013-5.172-.074c-1.248-.058-1.925-.266-2.377-.441a3.965 3.965 0 0 1-1.472-.958 3.968 3.968 0 0 1-.958-1.471c-.175-.45-.384-1.128-.44-2.376-.062-1.35-.074-1.755-.074-5.173s.012-3.821.073-5.17c.058-1.249.266-1.926.441-2.377.232-.598.51-1.024.958-1.472a3.972 3.972 0 0 1 1.472-.958c.451-.176 1.129-.384 2.377-.441 1.18-.054 1.638-.07 4.024-.072v.003Zm7.98 2.125a1.536 1.536 0 1 0 0 3.073 1.536 1.536 0 0 0 0-3.073ZM17.429 24a6.574 6.574 0 1 1 13.147 0 6.574 6.574 0 0 1-13.147 0Z" clip-rule="evenodd"/>
			<path  stroke="none" d="M24.001 19.733a4.267 4.267 0 1 1 0 8.534 4.267 4.267 0 0 1 0-8.534Z" />
		</symbol>	
		<symbol width="20" height="20" viewBox="0 0 50 50" xmlns="http://www.w3.org/2000/svg" id="telegram">
			<path stroke="none" fill-rule="evenodd" d="M0 24c0 13.255 10.745 24 24 24s24-10.745 24-24S37.255 0 24 0 0 10.745 0 24Zm19.6 11 .408-6.118 11.129-10.043c.488-.433-.107-.645-.755-.252l-13.735 8.665-5.932-1.851c-1.281-.393-1.29-1.273.287-1.906l23.118-8.914c1.056-.48 2.075.254 1.672 1.87l-3.937 18.552c-.275 1.319-1.071 1.634-2.175 1.025l-5.997-4.431L20.8 34.4l-.027.026c-.322.314-.59.574-1.173.574Z" clip-rule="evenodd"/>
		</symbol>
		<symbol width="20" height="20" viewBox="0 0 512 512" xmlns="http://www.w3.org/2000/svg" id="intro">
			<path d="M223.1 32C223.1 14.33 238.3 0 255.1 0C273.7 0 288 14.33 288 32H441.4C445.6 32 449.7 33.69 452.7 36.69L500.7 84.69C506.9 90.93 506.9 101.1 500.7 107.3L452.7 155.3C449.7 158.3 445.6 160 441.4 160H63.1C46.33 160 31.1 145.7 31.1 128V64C31.1 46.33 46.33 32 63.1 32L223.1 32zM480 320C480 337.7 465.7 352 448 352H70.63C66.38 352 62.31 350.3 59.31 347.3L11.31 299.3C5.065 293.1 5.065 282.9 11.31 276.7L59.31 228.7C62.31 225.7 66.38 223.1 70.63 223.1H223.1V191.1H288V223.1H448C465.7 223.1 480 238.3 480 255.1V320zM255.1 512C238.3 512 223.1 497.7 223.1 480V384H288V480C288 497.7 273.7 512 255.1 512z">
			</path>
		</symbol>
		<symbol width="20" height="20" viewBox="0 0 384 512" xmlns="http://www.w3.org/2000/svg" id="install">
			<path d="M374.6 310.6l-160 160C208.4 476.9 200.2 480 192 480s-16.38-3.125-22.62-9.375l-160-160c-12.5-12.5-12.5-32.75 0-45.25s32.75-12.5 45.25 0L160 370.8V64c0-17.69 14.33-31.1 31.1-31.1S224 46.31 224 64v306.8l105.4-105.4c12.5-12.5 32.75-12.5 45.25 0S387.1 298.1 374.6 310.6z">
			</path>
		</symbol>
		<symbol width="20" height="20" viewBox="0 0 448 512" xmlns="http://www.w3.org/2000/svg" id="api">
			<path d="M50.73 58.53C58.86 42.27 75.48 32 93.67 32H208V160H0L50.73 58.53zM240 160V32H354.3C372.5 32 389.1 42.27 397.3 58.53L448 160H240zM448 416C448 451.3 419.3 480 384 480H64C28.65 480 0 451.3 0 416V192H448V416z">
			</path>
		</symbol>
		<symbol width="20" height="20" viewBox="0 0 640 512"  xmlns="http://www.w3.org/2000/svg" id="integration">
			<path d="M286.3 155.1C287.4 161.9 288 168.9 288 175.1C288 183.1 287.4 190.1 286.3 196.9L308.5 216.7C315.5 223 318.4 232.1 314.7 241.7C312.4 246.1 309.9 252.2 307.1 257.2L304 262.6C300.1 267.6 297.7 272.4 294.2 277.1C288.5 284.7 278.5 287.2 269.5 284.2L241.2 274.9C230.5 283.8 218.3 290.9 205 295.9L198.1 324.9C197 334.2 189.8 341.6 180.4 342.8C173.7 343.6 166.9 344 160 344C153.1 344 146.3 343.6 139.6 342.8C130.2 341.6 122.1 334.2 121 324.9L114.1 295.9C101.7 290.9 89.5 283.8 78.75 274.9L50.53 284.2C41.54 287.2 31.52 284.7 25.82 277.1C22.28 272.4 18.98 267.5 15.94 262.5L12.92 257.2C10.13 252.2 7.592 247 5.324 241.7C1.62 232.1 4.458 223 11.52 216.7L33.7 196.9C32.58 190.1 31.1 183.1 31.1 175.1C31.1 168.9 32.58 161.9 33.7 155.1L11.52 135.3C4.458 128.1 1.62 119 5.324 110.3C7.592 104.1 10.13 99.79 12.91 94.76L15.95 89.51C18.98 84.46 22.28 79.58 25.82 74.89C31.52 67.34 41.54 64.83 50.53 67.79L78.75 77.09C89.5 68.25 101.7 61.13 114.1 56.15L121 27.08C122.1 17.8 130.2 10.37 139.6 9.231C146.3 8.418 153.1 8 160 8C166.9 8 173.7 8.418 180.4 9.23C189.8 10.37 197 17.8 198.1 27.08L205 56.15C218.3 61.13 230.5 68.25 241.2 77.09L269.5 67.79C278.5 64.83 288.5 67.34 294.2 74.89C297.7 79.56 300.1 84.42 304 89.44L307.1 94.83C309.9 99.84 312.4 105 314.7 110.3C318.4 119 315.5 128.1 308.5 135.3L286.3 155.1zM160 127.1C133.5 127.1 112 149.5 112 175.1C112 202.5 133.5 223.1 160 223.1C186.5 223.1 208 202.5 208 175.1C208 149.5 186.5 127.1 160 127.1zM484.9 478.3C478.1 479.4 471.1 480 464 480C456.9 480 449.9 479.4 443.1 478.3L423.3 500.5C416.1 507.5 407 510.4 398.3 506.7C393 504.4 387.8 501.9 382.8 499.1L377.4 496C372.4 492.1 367.6 489.7 362.9 486.2C355.3 480.5 352.8 470.5 355.8 461.5L365.1 433.2C356.2 422.5 349.1 410.3 344.1 397L315.1 390.1C305.8 389 298.4 381.8 297.2 372.4C296.4 365.7 296 358.9 296 352C296 345.1 296.4 338.3 297.2 331.6C298.4 322.2 305.8 314.1 315.1 313L344.1 306.1C349.1 293.7 356.2 281.5 365.1 270.8L355.8 242.5C352.8 233.5 355.3 223.5 362.9 217.8C367.6 214.3 372.5 210.1 377.5 207.9L382.8 204.9C387.8 202.1 392.1 199.6 398.3 197.3C407 193.6 416.1 196.5 423.3 203.5L443.1 225.7C449.9 224.6 456.9 224 464 224C471.1 224 478.1 224.6 484.9 225.7L504.7 203.5C511 196.5 520.1 193.6 529.7 197.3C535 199.6 540.2 202.1 545.2 204.9L550.5 207.9C555.5 210.1 560.4 214.3 565.1 217.8C572.7 223.5 575.2 233.5 572.2 242.5L562.9 270.8C571.8 281.5 578.9 293.7 583.9 306.1L612.9 313C622.2 314.1 629.6 322.2 630.8 331.6C631.6 338.3 632 345.1 632 352C632 358.9 631.6 365.7 630.8 372.4C629.6 381.8 622.2 389 612.9 390.1L583.9 397C578.9 410.3 571.8 422.5 562.9 433.2L572.2 461.5C575.2 470.5 572.7 480.5 565.1 486.2C560.4 489.7 555.6 492.1 550.6 496L545.2 499.1C540.2 501.9 534.1 504.4 529.7 506.7C520.1 510.4 511 507.5 504.7 500.5L484.9 478.3zM512 352C512 325.5 490.5 304 464 304C437.5 304 416 325.5 416 352C416 378.5 437.5 400 464 400C490.5 400 512 378.5 512 352z">
			</path>
		</symbol>
		<symbol width="20" height="20" viewBox="0 0 512 512" xmlns="http://www.w3.org/2000/svg" id="utiliti">
			<path d="M331.8 224.1c28.29 0 54.88 10.99 74.86 30.97l19.59 19.59c40.01-17.74 71.25-53.3 81.62-96.65c5.725-23.92 5.34-47.08 .2148-68.4c-2.613-10.88-16.43-14.51-24.34-6.604l-68.9 68.9h-75.6V97.2l68.9-68.9c7.912-7.912 4.275-21.73-6.604-24.34c-21.32-5.125-44.48-5.51-68.4 .2148c-55.3 13.23-98.39 60.22-107.2 116.4C224.5 128.9 224.2 137 224.3 145l82.78 82.86C315.2 225.1 323.5 224.1 331.8 224.1zM384 278.6c-23.16-23.16-57.57-27.57-85.39-13.9L191.1 158L191.1 95.99l-127.1-95.99L0 63.1l96 127.1l62.04 .0077l106.7 106.6c-13.67 27.82-9.251 62.23 13.91 85.39l117 117.1c14.62 14.5 38.21 14.5 52.71-.0016l52.75-52.75c14.5-14.5 14.5-38.08-.0016-52.71L384 278.6zM227.9 307L168.7 247.9l-148.9 148.9c-26.37 26.37-26.37 69.08 0 95.45C32.96 505.4 50.21 512 67.5 512s34.54-6.592 47.72-19.78l119.1-119.1C225.5 352.3 222.6 329.4 227.9 307zM64 472c-13.25 0-24-10.75-24-24c0-13.26 10.75-24 24-24S88 434.7 88 448C88 461.3 77.25 472 64 472z">
			</path>
		</symbol>
		<symbol width="20" height="20" viewBox="0 0 640 512"  xmlns="http://www.w3.org/2000/svg" id="web">
			<path d="M128 96h384v256h64V80C576 53.63 554.4 32 528 32h-416C85.63 32 64 53.63 64 80V352h64V96zM624 384h-608C7.25 384 0 391.3 0 400V416c0 35.25 28.75 64 64 64h512c35.25 0 64-28.75 64-64v-16C640 391.3 632.8 384 624 384zM365.9 286.2C369.8 290.1 374.9 292 380 292s10.23-1.938 14.14-5.844l48-48c7.812-7.813 7.812-20.5 0-28.31l-48-48c-7.812-7.813-20.47-7.813-28.28 0c-7.812 7.813-7.812 20.5 0 28.31l33.86 33.84l-33.86 33.84C358 265.7 358 278.4 365.9 286.2zM274.1 161.9c-7.812-7.813-20.47-7.813-28.28 0l-48 48c-7.812 7.813-7.812 20.5 0 28.31l48 48C249.8 290.1 254.9 292 260 292s10.23-1.938 14.14-5.844c7.812-7.813 7.812-20.5 0-28.31L240.3 224l33.86-33.84C281.1 182.4 281.1 169.7 274.1 161.9z">
			</path>
		</symbol>
		<symbol width="20" height="20" viewBox="0 0 448 512"  xmlns="http://www.w3.org/2000/svg" id="mobile">
			<path d="M384 .0001H64c-35.35 0-64 28.65-64 64v384c0 35.35 28.65 63.1 64 63.1h320c35.35 0 64-28.65 64-63.1v-384C448 28.65 419.3 .0001 384 .0001zM224 480c-17.75 0-32-14.25-32-32s14.25-32 32-32s32 14.25 32 32S241.8 480 224 480zM384 384H64v-320h320V384z">
			</path>
		</symbol>
		<symbol width="20" height="20" viewBox="0 0 512 512"  xmlns="http://www.w3.org/2000/svg" id="resources">
			<path d="M0 219.2v212.5c0 14.25 11.62 26.25 26.5 27C75.32 461.2 180.2 471.3 240 511.9V245.2C181.4 205.5 79.99 194.8 29.84 192C13.59 191.1 0 203.6 0 219.2zM482.2 192c-50.09 2.848-151.3 13.47-209.1 53.09C272.1 245.2 272 245.3 272 245.5v266.5c60.04-40.39 164.7-50.76 213.5-53.28C500.4 457.9 512 445.9 512 431.7V219.2C512 203.6 498.4 191.1 482.2 192zM352 96c0-53-43-96-96-96S160 43 160 96s43 96 96 96S352 149 352 96z">
			</path>
		</symbol>
		<symbol width="20" height="20" viewBox="0 0 384 512"  xmlns="http://www.w3.org/2000/svg" id="faq">
			<path d="M112.1 454.3c0 6.297 1.816 12.44 5.284 17.69l17.14 25.69c5.25 7.875 17.17 14.28 26.64 14.28h61.67c9.438 0 21.36-6.401 26.61-14.28l17.08-25.68c2.938-4.438 5.348-12.37 5.348-17.7L272 415.1h-160L112.1 454.3zM191.4 .0132C89.44 .3257 16 82.97 16 175.1c0 44.38 16.44 84.84 43.56 115.8c16.53 18.84 42.34 58.23 52.22 91.45c.0313 .25 .0938 .5166 .125 .7823h160.2c.0313-.2656 .0938-.5166 .125-.7823c9.875-33.22 35.69-72.61 52.22-91.45C351.6 260.8 368 220.4 368 175.1C368 78.61 288.9-.2837 191.4 .0132zM192 96.01c-44.13 0-80 35.89-80 79.1C112 184.8 104.8 192 96 192S80 184.8 80 176c0-61.76 50.25-111.1 112-111.1c8.844 0 16 7.159 16 16S200.8 96.01 192 96.01z">
			</path>
		</symbol>
	</defs>
</svg>